<svg width="43" height="44" viewBox="0 0 43 44" fill="none" xmlns="http://www.w3.org/2000/svg">
  <path d="M21.2629 25.4314C18.6203 25.4317 16.0198 24.789 13.6988 23.5621C13.2259 23.3113 12.8751 22.8883 12.7234 22.3862C12.5716 21.8842 12.6315 21.3442 12.8898 20.885C13.1481 20.4258 13.5836 20.085 14.1006 19.9377C14.6176 19.7904 15.1737 19.8485 15.6465 20.0994C17.3703 21.0099 19.3014 21.487 21.2637 21.487C23.226 21.487 25.157 21.0099 26.8808 20.0994C27.3536 19.8485 27.9097 19.7904 28.4267 19.9377C28.9437 20.085 29.3792 20.4258 29.6375 20.885C29.8958 21.3442 29.9557 21.8842 29.804 22.3862C29.6523 22.8883 29.3014 23.3113 28.8286 23.5621C26.5071 24.7892 23.906 25.4319 21.2629 25.4314Z" fill="#0066FF"/>
  <path d="M10.829 43.2476C10.3534 43.2466 9.88348 43.1466 9.45103 42.9543C8.86978 42.7039 8.37647 42.2942 8.03162 41.7754C7.68678 41.2566 7.50542 40.6513 7.5098 40.0338C7.50955 39.9527 7.515 39.8716 7.52613 39.7912L8.14817 34.9158C8.21901 34.4005 8.49649 33.9332 8.92027 33.6155C9.34405 33.2978 9.87985 33.1555 10.4111 33.2194C10.9424 33.2834 11.4262 33.5484 11.7573 33.957C12.0884 34.3655 12.24 34.8845 12.1792 35.401L11.8527 37.9378L16.0257 33.7838C16.2118 33.5981 16.4338 33.4498 16.6789 33.3473C16.924 33.2449 17.1875 33.1904 17.4543 33.1868C17.7212 33.1833 17.9861 33.2308 18.234 33.3267C18.4819 33.4226 18.7079 33.565 18.8992 33.7457C19.0904 33.9265 19.2431 34.142 19.3486 34.38C19.4541 34.6181 19.5102 34.874 19.5139 35.1331C19.5175 35.3922 19.4686 35.6495 19.3698 35.8902C19.2711 36.131 19.1245 36.3505 18.9384 36.5362L13.1065 42.3439C13.0673 42.3819 13.0282 42.4184 12.9857 42.4533C12.3903 42.964 11.6235 43.2465 10.829 43.2476Z" fill="#0066FF"/>
  <path d="M34.2187 37.1307H17.4873C16.9487 37.1307 16.4321 36.9229 16.0512 36.553C15.6703 36.1832 15.4563 35.6815 15.4563 35.1584C15.4563 34.6353 15.6703 34.1336 16.0512 33.7637C16.4321 33.3938 16.9487 33.186 17.4873 33.186H34.2187C35.3437 33.1835 36.4219 32.7484 37.2175 31.9759C38.013 31.2033 38.461 30.1563 38.4636 29.0637V8.07176C38.461 6.97923 38.013 5.93217 37.2175 5.15964C36.4219 4.3871 35.3437 3.95198 34.2187 3.94947H8.31182C7.1868 3.95198 6.1086 4.3871 5.31309 5.15964C4.51758 5.93217 4.06952 6.97923 4.06693 8.07176V29.059C4.06952 30.1515 4.51758 31.1986 5.31309 31.9711C6.1086 32.7436 7.1868 33.1788 8.31182 33.1813H10.1681C10.7068 33.1813 11.2234 33.3891 11.6043 33.759C11.9852 34.1288 12.1992 34.6305 12.1992 35.1536C12.1992 35.6767 11.9852 36.1784 11.6043 36.5483C11.2234 36.9182 10.7068 37.126 10.1681 37.126H8.31182C6.10943 37.1222 3.99828 36.2712 2.44049 34.7593C0.882705 33.2474 0.00517869 31.1978 0 29.059V8.07176C0.00388465 5.93216 0.88084 3.88126 2.43877 2.36833C3.9967 0.855399 6.10858 0.00377245 8.31182 0H34.2187C36.422 0.00377245 38.5339 0.855399 40.0918 2.36833C41.6497 3.88126 42.5267 5.93216 42.5306 8.07176V29.059C42.5267 31.1986 41.6497 33.2495 40.0918 34.7624C38.5339 36.2753 36.422 37.127 34.2187 37.1307Z" fill="#0066FF"/>
</svg>
