<svg width="16" height="16" viewBox="0 0 16 16" fill="none" xmlns="http://www.w3.org/2000/svg">
<path d="M8 15.1663C4.04667 15.1663 0.833332 11.953 0.833332 7.99967C0.833332 4.04634 4.04667 0.833008 8 0.833008C11.9533 0.833008 15.1667 4.04634 15.1667 7.99967C15.1667 11.953 11.9533 15.1663 8 15.1663ZM8 1.83301C4.6 1.83301 1.83333 4.59967 1.83333 7.99967C1.83333 11.3997 4.6 14.1663 8 14.1663C11.4 14.1663 14.1667 11.3997 14.1667 7.99967C14.1667 4.59967 11.4 1.83301 8 1.83301Z" fill="#0066FF"/>
<path d="M10.6667 8.5H5.33333C5.06 8.5 4.83333 8.27333 4.83333 8C4.83333 7.72667 5.06 7.5 5.33333 7.5H10.6667C10.94 7.5 11.1667 7.72667 11.1667 8C11.1667 8.27333 10.94 8.5 10.6667 8.5Z" fill="#0066FF"/>
<path d="M8 11.1663C7.72667 11.1663 7.5 10.9397 7.5 10.6663V5.33301C7.5 5.05967 7.72667 4.83301 8 4.83301C8.27333 4.83301 8.5 5.05967 8.5 5.33301V10.6663C8.5 10.9397 8.27333 11.1663 8 11.1663Z" fill="#0066FF"/>
</svg>
