<svg width="48" height="48" viewBox="0 0 48 48" fill="none" xmlns="http://www.w3.org/2000/svg">
<defs>
<linearGradient id="paint0_linear_209_8467" x1="24" y1="0" x2="24" y2="48" gradientUnits="userSpaceOnUse">
<stop stop-color="#1AABFC"/>
<stop offset="1" stop-color="#0064D8"/>
</linearGradient>
</defs>

<circle cx="24" cy="24" r="24" fill="url(#paint0_linear_209_8467)"/>
<path d="M27.8248 22.6227L27.9242 28.4898L33.1548 28.4102C33.5326 28.4102 33.8111 28.7483 33.7514 29.1063L33.0553 32.9049C32.9956 33.1833 32.757 33.3822 32.4786 33.4021L28.0038 33.4817L28.2424 47.9006L22.276 48L22.0373 33.5811L18.6563 33.6408C18.3182 33.6408 18.0597 33.3822 18.0597 33.0441L18 29.2654C18 28.9273 18.2586 28.6687 18.5966 28.6687L21.9777 28.6091L21.8782 22.1454C21.8185 18.844 24.4438 16.1392 27.7452 16.0796L33.115 16C33.4531 16 33.7116 16.2586 33.7116 16.5966L33.7912 21.3698C33.7912 21.7079 33.5326 21.9664 33.1945 21.9664L28.4214 22.046C28.0833 22.0261 27.8248 22.3045 27.8248 22.6227Z" fill="white"/>

</svg>
