<svg width="16" height="16" viewBox="0 0 16 16" fill="none" xmlns="http://www.w3.org/2000/svg">
<path d="M9.93333 15.1663H6.06667C5.47334 15.1663 4.71333 14.853 4.3 14.433L1.56667 11.6997C1.14667 11.2797 0.833332 10.5197 0.833332 9.933V6.06635C0.833332 5.47301 1.14667 4.71302 1.56667 4.29968L4.3 1.56635C4.72 1.14635 5.48 0.833008 6.06667 0.833008H9.93333C10.5267 0.833008 11.2867 1.14635 11.7 1.56635L14.4333 4.29968C14.8533 4.71968 15.1667 5.47968 15.1667 6.06635V9.933C15.1667 10.5263 14.8533 11.2863 14.4333 11.6997L11.7 14.433C11.28 14.853 10.5267 15.1663 9.93333 15.1663ZM6.06667 1.83301C5.74 1.83301 5.23333 2.03968 5.00666 2.27301L2.27333 5.00635C2.04667 5.23968 1.83333 5.73968 1.83333 6.06635V9.933C1.83333 10.2597 2.04 10.7663 2.27333 10.993L5.00666 13.7263C5.24 13.953 5.74 14.1663 6.06667 14.1663H9.93333C10.26 14.1663 10.7667 13.9597 10.9933 13.7263L13.7267 10.993C13.9533 10.7597 14.1667 10.2597 14.1667 9.933V6.06635C14.1667 5.73968 13.96 5.23301 13.7267 5.00635L10.9933 2.27301C10.76 2.04634 10.26 1.83301 9.93333 1.83301H6.06667Z" fill="#898A8D"/>
<path d="M3.29325 13.2199C3.16659 13.2199 3.03992 13.1732 2.93992 13.0732C2.74659 12.8799 2.74659 12.5599 2.93992 12.3666L12.3666 2.93992C12.5599 2.74659 12.8799 2.74659 13.0733 2.93992C13.2666 3.13326 13.2666 3.45325 13.0733 3.64659L3.64659 13.0732C3.54659 13.1732 3.41992 13.2199 3.29325 13.2199Z" fill="#898A8D"/>
</svg>
