<svg width="32" height="32" viewBox="0 0 32 32" fill="none" xmlns="http://www.w3.org/2000/svg">
<path d="M16 4C12.741 4 12.3323 4.01383 11.0524 4.0722C9.77514 4.13047 8.90283 4.33336 8.13952 4.62995C7.35041 4.93662 6.6812 5.34696 6.0141 6.01406C5.34696 6.68117 4.93662 7.35045 4.62998 8.13956C4.33332 8.90283 4.13051 9.77514 4.07217 11.0524C4.01379 12.3323 4 12.741 4 16C4 19.259 4.01379 19.6677 4.07217 20.9476C4.13051 22.2249 4.33332 23.0972 4.62998 23.8604C4.93665 24.6495 5.347 25.3188 6.0141 25.9859C6.68124 26.653 7.35041 27.0634 8.13952 27.3701C8.90283 27.6666 9.77514 27.8695 11.0524 27.9278C12.3323 27.9862 12.741 28 16 28C19.259 28 19.6677 27.9862 20.9476 27.9278C22.2249 27.8695 23.0972 27.6666 23.8604 27.3701C24.6495 27.0634 25.3188 26.653 25.9859 25.9859C26.653 25.3188 27.0634 24.6495 27.3701 23.8604C27.6666 23.0972 27.8695 22.2249 27.9278 20.9476C27.9862 19.6677 28 19.259 28 16C28 12.741 27.9862 12.3323 27.9278 11.0524C27.8695 9.77514 27.6666 8.90283 27.3701 8.13956C27.0634 7.35045 26.653 6.68117 25.9859 6.01406C25.3188 5.34696 24.6495 4.93662 23.8604 4.62995C23.0972 4.33336 22.2249 4.13047 20.9476 4.0722C19.6677 4.01383 19.259 4 16 4ZM16 6.16215C19.2041 6.16215 19.5837 6.1744 20.849 6.23213C22.019 6.28547 22.6544 6.48096 23.0772 6.6453C23.6374 6.86301 24.0371 7.12302 24.457 7.54294C24.877 7.96286 25.137 8.36263 25.3547 8.92273C25.519 9.34558 25.7145 9.98099 25.7679 11.151C25.8256 12.4163 25.8379 12.7959 25.8379 16C25.8379 19.2041 25.8256 19.5837 25.7679 20.849C25.7145 22.019 25.519 22.6544 25.3547 23.0772C25.137 23.6374 24.877 24.0371 24.457 24.457C24.0371 24.877 23.6374 25.137 23.0773 25.3547C22.6544 25.519 22.019 25.7145 20.849 25.7679C19.5839 25.8256 19.2044 25.8379 16 25.8379C12.7956 25.8379 12.4162 25.8256 11.151 25.7678C9.98096 25.7145 9.34558 25.519 8.92277 25.3547C8.36259 25.137 7.96286 24.877 7.54297 24.457C7.12306 24.0371 6.86301 23.6374 6.6453 23.0773C6.48096 22.6544 6.28551 22.019 6.23213 20.849C6.1744 19.5837 6.16215 19.2041 6.16215 16C6.16215 12.7959 6.1744 12.4163 6.23213 11.151C6.28551 9.98096 6.48096 9.34558 6.6453 8.92277C6.86301 8.36259 7.12306 7.96286 7.54294 7.54297C7.96286 7.12302 8.36263 6.86301 8.92273 6.6453C9.34558 6.48096 9.98099 6.28547 11.151 6.23213C12.4163 6.1744 12.7959 6.16215 16 6.16215" fill="#100F0D"/>
<path d="M16.0001 20.0001C13.7909 20.0001 12 18.2093 12 16.0002C12 13.791 13.7909 12.0001 16.0001 12.0001C18.2092 12.0001 20.0001 13.791 20.0001 16.0002C20.0001 18.2093 18.2092 20.0001 16.0001 20.0001ZM16.0001 9.83797C12.5968 9.83797 9.83789 12.5968 9.83789 16.0002C9.83789 19.4034 12.5968 22.1623 16.0001 22.1623C19.4034 22.1623 22.1622 19.4034 22.1622 16.0002C22.1622 12.5968 19.4034 9.83797 16.0001 9.83797ZM23.8457 9.5945C23.8457 10.3898 23.201 11.0345 22.4057 11.0345C21.6105 11.0345 20.9657 10.3898 20.9657 9.5945C20.9657 8.79922 21.6105 8.15448 22.4057 8.15448C23.201 8.15448 23.8457 8.79922 23.8457 9.5945Z" fill="#100F0D"/>
</svg>

