<svg width="48" height="48" viewBox="0 0 48 48" fill="none" xmlns="http://www.w3.org/2000/svg">

<defs>
<linearGradient id="paint0_linear_209_8473" x1="24" y1="0" x2="24" y2="48" gradientUnits="userSpaceOnUse">
<stop stop-color="#9830C8"/>
<stop offset="0.541667" stop-color="#F84F4C"/>
<stop offset="1" stop-color="#FDBD4F"/>
</linearGradient>
</defs>

<circle cx="24" cy="24" r="24" fill="url(#paint0_linear_209_8473)"/>
<path d="M18.6667 12C14.9907 12 12 14.9907 12 18.6667V29.3333C12 33.0093 14.9907 36 18.6667 36H29.3334C33.0094 36 36 33.0093 36 29.3333V18.6667C36 14.9907 33.0094 12 29.3334 12H18.6667ZM18.6667 14.6667H29.3334C31.5387 14.6667 33.3334 16.4613 33.3334 18.6667V29.3333C33.3334 31.5387 31.5387 33.3333 29.3334 33.3333H18.6667C16.4614 33.3333 14.6667 31.5387 14.6667 29.3333V18.6667C14.6667 16.4613 16.4614 14.6667 18.6667 14.6667ZM30.6667 16C30.3131 16 29.9739 16.1405 29.7239 16.3905C29.4738 16.6406 29.3334 16.9797 29.3334 17.3333C29.3334 17.687 29.4738 18.0261 29.7239 18.2761C29.9739 18.5262 30.3131 18.6667 30.6667 18.6667C31.0203 18.6667 31.3595 18.5262 31.6095 18.2761C31.8596 18.0261 32 17.687 32 17.3333C32 16.9797 31.8596 16.6406 31.6095 16.3905C31.3595 16.1405 31.0203 16 30.6667 16ZM24 17.3333C20.324 17.3333 17.3334 20.324 17.3334 24C17.3334 27.676 20.324 30.6667 24 30.6667C27.676 30.6667 30.6667 27.676 30.6667 24C30.6667 20.324 27.676 17.3333 24 17.3333ZM24 20C26.2054 20 28 21.7947 28 24C28 26.2053 26.2054 28 24 28C21.7947 28 20 26.2053 20 24C20 21.7947 21.7947 20 24 20Z" fill="white"/>

</svg>
