<svg width="28" height="28" viewBox="0 0 28 28" fill="none" xmlns="http://www.w3.org/2000/svg">
<path d="M20.6665 0.666664H7.33317C3.65317 0.666664 0.666504 3.64 0.666504 7.30666V15.28V16.6133C0.666504 20.28 3.65317 23.2533 7.33317 23.2533H9.33317C9.69317 23.2533 10.1732 23.4933 10.3998 23.7867L12.3998 26.44C13.2798 27.6133 14.7198 27.6133 15.5998 26.44L17.5998 23.7867C17.8532 23.4533 18.2532 23.2533 18.6665 23.2533H20.6665C24.3465 23.2533 27.3332 20.28 27.3332 16.6133V7.30666C27.3332 3.64 24.3465 0.666664 20.6665 0.666664ZM15.3332 16.3333H7.33317C6.7865 16.3333 6.33317 15.88 6.33317 15.3333C6.33317 14.7867 6.7865 14.3333 7.33317 14.3333H15.3332C15.8798 14.3333 16.3332 14.7867 16.3332 15.3333C16.3332 15.88 15.8798 16.3333 15.3332 16.3333ZM20.6665 9.66666H7.33317C6.7865 9.66666 6.33317 9.21333 6.33317 8.66666C6.33317 8.12 6.7865 7.66666 7.33317 7.66666H20.6665C21.2132 7.66666 21.6665 8.12 21.6665 8.66666C21.6665 9.21333 21.2132 9.66666 20.6665 9.66666Z" fill="#292D32"/>
</svg>
