<svg width="28" height="24" viewBox="0 0 28 24" fill="none" xmlns="http://www.w3.org/2000/svg">
<path d="M27.8667 3.39947C26.8459 3.8528 25.7494 4.15787 24.5985 4.29547C25.7739 3.59147 26.6753 2.4768 27.0998 1.14774C26.0011 1.79947 24.783 2.27307 23.4859 2.52907C22.4481 1.42294 20.9697 0.731735 19.3334 0.731735C16.191 0.731735 13.6438 3.28 13.6438 6.42134C13.6438 6.8672 13.695 7.3024 13.791 7.71734C9.06246 7.48054 4.87046 5.21494 2.06299 1.77174C1.57446 2.61227 1.29392 3.58934 1.29392 4.6336C1.29392 6.60694 2.29766 8.3488 3.82406 9.36854C2.89179 9.33867 2.01392 9.08267 1.24699 8.65707C1.24699 8.6816 1.24699 8.704 1.24699 8.72854C1.24699 11.4859 3.20752 13.7856 5.81126 14.3072C5.33446 14.4373 4.83099 14.5067 4.31152 14.5067C3.94566 14.5067 3.58832 14.4704 3.24166 14.4053C3.96592 16.6656 6.06726 18.3115 8.55686 18.3573C6.61019 19.8837 4.15686 20.7936 1.49019 20.7936C1.03152 20.7936 0.578191 20.7669 0.132324 20.7136C2.65072 22.3275 5.64059 23.2693 8.85446 23.2693C19.3206 23.2693 25.0422 14.5995 25.0422 7.08054C25.0422 6.83414 25.0369 6.5888 25.0262 6.34454C26.1387 5.54134 27.1041 4.53974 27.8667 3.39947Z" fill="black"/>
</svg>
