<svg width="26" height="26" viewBox="0 0 26 26" fill="none" xmlns="http://www.w3.org/2000/svg">
<defs>
<linearGradient id="paint0_linear_2478_30833" x1="13" y1="0" x2="13" y2="26" gradientUnits="userSpaceOnUse">
<stop stop-color="#5FFC7B"/>
<stop offset="0.541667" stop-color="#42E55F"/>
<stop offset="1" stop-color="#27D145"/>
</linearGradient>
</defs>

<circle cx="13" cy="13" r="13" fill="url(#paint0_linear_2478_30833)"/>

<path d="M13.0079 6.33398C9.33719 6.33398 6.34903 9.31957 6.3477 12.9902C6.34703 14.1636 6.65435 15.309 7.23702 16.3184L6.33337 19.6673L9.82166 18.8431C10.7943 19.3738 11.8893 19.6523 13.0039 19.653H13.0066C16.6766 19.653 19.6634 16.6667 19.6654 12.9967C19.6667 11.2174 18.9748 9.54447 17.7175 8.28581C16.4602 7.02781 14.7892 6.33465 13.0079 6.33398ZM13.0066 7.66732C14.4306 7.66798 15.7688 8.22318 16.7748 9.22852C17.7808 10.2352 18.3334 11.5728 18.3321 12.9954C18.3307 15.9314 15.9426 18.3197 13.0052 18.3197C12.1166 18.319 11.2363 18.0959 10.461 17.6725L10.0118 17.4277L9.51567 17.5449L8.20317 17.8548L8.52348 16.6647L8.66801 16.1309L8.39197 15.6517C7.92663 14.8464 7.68036 13.9256 7.68103 12.9902C7.68236 10.0556 10.0712 7.66732 13.0066 7.66732ZM10.6511 9.91732C10.5397 9.91732 10.3597 9.95898 10.2071 10.1257C10.0544 10.2917 9.62374 10.6937 9.62374 11.5124C9.62374 12.331 10.2201 13.1224 10.3034 13.2337C10.3861 13.3444 11.4545 15.0775 13.1459 15.7441C14.5512 16.2981 14.8366 16.1888 15.142 16.1608C15.4473 16.1335 16.127 15.7591 16.2657 15.3704C16.4043 14.9818 16.4047 14.6474 16.3633 14.5788C16.322 14.5094 16.211 14.4681 16.0443 14.3848C15.8783 14.3014 15.0603 13.8997 14.9076 13.8444C14.7549 13.7891 14.6433 13.7611 14.5326 13.9277C14.4219 14.0944 14.1039 14.4681 14.0066 14.5788C13.9092 14.6901 13.8125 14.7051 13.6459 14.6217C13.4792 14.5377 12.9433 14.3616 12.3073 13.7949C11.8127 13.3543 11.4789 12.8105 11.3816 12.6439C11.2849 12.4779 11.3724 12.3867 11.4558 12.304C11.5304 12.2294 11.6211 12.1097 11.7045 12.0124C11.7871 11.915 11.8158 11.8457 11.8711 11.735C11.9265 11.6244 11.8981 11.5267 11.8568 11.4434C11.8155 11.36 11.4918 10.5383 11.3438 10.209C11.2191 9.93232 11.0875 9.92589 10.9688 9.92122C10.8721 9.91722 10.7617 9.91732 10.6511 9.91732Z" fill="white"/>
</svg>
