<svg width="32" height="32" viewBox="0 0 32 32" fill="none" xmlns="http://www.w3.org/2000/svg">
<path d="M16.0203 0C7.20985 0 0.0375787 7.1654 0.0343783 15.975C0.0327782 18.791 0.770425 21.5401 2.16896 23.9625L0 32L8.37269 30.0219C10.7073 31.2955 13.3355 31.964 16.0109 31.9656H16.0172C24.826 31.9656 31.9952 24.7986 32 15.9906C32.0032 11.7202 30.3424 7.70517 27.3245 4.68438C24.3066 1.66518 20.2959 0.0016 16.0203 0ZM16.0172 3.2C19.4351 3.2016 22.6472 4.53408 25.0618 6.94688C27.4765 9.36287 28.8029 12.5731 28.7997 15.9875C28.7965 23.0339 23.0643 28.7656 16.0141 28.7656C13.8811 28.764 11.7682 28.2285 9.90722 27.2125L8.82899 26.625L7.63824 26.9062L4.48794 27.65L5.25676 24.7938L5.60367 23.5125L4.94111 22.3625C3.8242 20.4297 3.23309 18.2198 3.23469 15.975C3.23789 8.9318 8.9717 3.2 16.0172 3.2ZM10.3635 8.6C10.0963 8.6 9.66422 8.7 9.29778 9.1C8.93134 9.4984 7.89764 10.4633 7.89764 12.4281C7.89764 14.3929 9.32903 16.2922 9.52905 16.5594C9.72747 16.825 12.292 20.9844 16.3516 22.5844C19.7247 23.914 20.4098 23.6516 21.1427 23.5844C21.8756 23.5188 23.507 22.6203 23.8398 21.6875C24.1727 20.7547 24.1734 19.9523 24.0742 19.7875C23.975 19.6211 23.7086 19.5219 23.3085 19.3219C22.9101 19.1219 20.9466 18.1578 20.5801 18.025C20.2137 17.8922 19.9457 17.825 19.68 18.225C19.4144 18.625 18.651 19.5219 18.4174 19.7875C18.1838 20.0547 17.9517 20.0906 17.5517 19.8906C17.1517 19.689 15.8654 19.2663 14.3389 17.9062C13.1516 16.8486 12.3504 15.5437 12.1168 15.1438C11.8848 14.7453 12.0949 14.5265 12.2949 14.3281C12.4742 14.1489 12.6919 13.8617 12.8919 13.6281C13.0903 13.3945 13.1591 13.2281 13.2919 12.9625C13.4247 12.6969 13.3568 12.4625 13.2575 12.2625C13.1583 12.0625 12.3814 10.0904 12.0262 9.3C11.7269 8.636 11.4109 8.62057 11.1261 8.60938C10.8941 8.59978 10.6291 8.6 10.3635 8.6Z" fill="#7489AA"/>
</svg>
